<?xml version="1.0" standalone="no"?>
<!DOCTYPE svg PUBLIC "-//W3C//DTD SVG 20010904//EN"
 "http://www.w3.org/TR/2001/REC-SVG-20010904/DTD/svg10.dtd">
<svg version="1.0" xmlns="http://www.w3.org/2000/svg"
 width="745.000000pt" height="284.000000pt" viewBox="0 0 745.000000 284.000000"
 preserveAspectRatio="xMidYMid meet">
<metadata>
Created by potrace 1.13, written by Peter Selinger 2001-2015
</metadata>
<g transform="translate(0.000000,284.000000) scale(0.100000,-0.100000)"
fill="#000000" stroke="none">
<path d="M1320 2310 c-278 -35 -520 -192 -664 -429 -85 -140 -126 -293 -126
-466 1 -529 463 -942 990 -884 311 35 566 213 705 494 68 136 88 222 89 390 2
231 -47 377 -187 560 -182 238 -507 373 -807 335z m265 -450 c93 -14 161 -53
200 -115 26 -41 30 -58 30 -114 -1 -76 -18 -117 -73 -167 -21 -19 -32 -34 -26
-34 25 0 102 -63 124 -102 34 -59 35 -163 2 -225 -60 -115 -183 -147 -547
-141 l-190 3 -3 440 c-1 242 0 446 3 453 6 15 374 17 480 2z"/>
<path d="M1300 1595 l0 -97 125 4 c106 3 129 7 152 24 37 28 49 64 34 101 -20
49 -44 57 -183 61 l-128 4 0 -97z"/>
<path d="M1300 1235 l0 -95 133 1 c75 0 147 5 166 12 78 27 94 117 28 157 -28
17 -51 20 -179 20 l-148 0 0 -95z"/>
<path d="M3624 2310 c-360 -45 -658 -307 -755 -665 -31 -114 -32 -335 -1 -450
28 -102 96 -240 163 -329 230 -302 677 -423 1037 -280 280 111 497 373 547
659 50 289 -26 564 -213 775 -188 210 -494 325 -778 290z m-230 -732 c39 -158
74 -289 77 -292 3 -3 45 127 94 289 l89 295 85 0 86 0 91 -301 91 -302 74 299
75 299 102 3 c78 2 102 0 102 -10 1 -7 -59 -212 -132 -456 l-133 -443 -88 3
-89 3 -88 278 c-48 153 -90 280 -92 282 -2 3 -45 -124 -94 -280 l-89 -286 -89
3 -90 3 -127 425 c-71 234 -131 438 -134 453 l-7 28 108 -3 108 -3 70 -287z"/>
<path d="M5920 2310 c-486 -58 -844 -515 -781 -995 57 -422 380 -741 794 -784
379 -39 727 152 900 494 61 122 87 240 88 405 2 531 -467 944 -1001 880z m205
-441 c65 -12 145 -45 199 -81 l36 -25 -52 -75 -51 -75 -76 39 c-158 81 -294
52 -267 -57 8 -32 40 -48 173 -86 227 -65 295 -130 295 -279 0 -87 -23 -140
-83 -194 -68 -61 -130 -81 -249 -80 -135 0 -250 38 -342 112 l-37 29 60 72 60
71 32 -25 c148 -112 365 -110 355 3 -4 49 -38 70 -178 111 -177 51 -240 91
-274 173 -19 44 -21 135 -4 190 13 45 77 122 119 143 78 41 181 53 284 34z"/>
</g>
</svg>
